<mxfile host="app.diagrams.net" modified="2023-11-13T06:29:56.976Z" agent="Mozilla/5.0 (Windows NT 10.0; Win64; x64) AppleWebKit/537.36 (KHTML, like Gecko) Chrome/119.0.0.0 Safari/537.36" etag="1gTjRrI2_S5FjEDJqVRm" version="22.1.0" type="github">
  <diagram id="4Lkswo7ZMs3oHbGyGUTe" name="Page-1">
    <mxGraphModel dx="1050" dy="585" grid="1" gridSize="10" guides="1" tooltips="1" connect="1" arrows="1" fold="1" page="1" pageScale="1" pageWidth="827" pageHeight="1169" math="0" shadow="0">
      <root>
        <mxCell id="0" />
        <mxCell id="1" parent="0" />
        <mxCell id="KZ02CfdKbFGSH-bDwfGi-1" value="" style="rounded=0;whiteSpace=wrap;html=1;strokeColor=#9999FF;fillColor=#9999FF;" vertex="1" parent="1">
          <mxGeometry x="170" y="520" width="550" height="150" as="geometry" />
        </mxCell>
        <mxCell id="KZ02CfdKbFGSH-bDwfGi-2" value="" style="rounded=0;whiteSpace=wrap;html=1;fontSize=16;" vertex="1" parent="1">
          <mxGeometry x="180" y="537.5" width="320" height="115" as="geometry" />
        </mxCell>
        <mxCell id="KZ02CfdKbFGSH-bDwfGi-3" value="" style="rounded=0;whiteSpace=wrap;html=1;fillColor=#f5f5f5;strokeColor=#666666;fontColor=#333333;" vertex="1" parent="1">
          <mxGeometry x="170" y="90" width="550" height="60" as="geometry" />
        </mxCell>
        <mxCell id="KZ02CfdKbFGSH-bDwfGi-4" value="" style="shape=flexArrow;endArrow=classic;html=1;fontSize=16;" edge="1" parent="1">
          <mxGeometry width="50" height="50" relative="1" as="geometry">
            <mxPoint x="444.5" y="40" as="sourcePoint" />
            <mxPoint x="444.5" y="90" as="targetPoint" />
          </mxGeometry>
        </mxCell>
        <mxCell id="KZ02CfdKbFGSH-bDwfGi-5" value="&lt;font style=&quot;font-size: 16px&quot;&gt;请求&lt;/font&gt;" style="edgeLabel;html=1;align=center;verticalAlign=middle;resizable=0;points=[];" vertex="1" connectable="0" parent="KZ02CfdKbFGSH-bDwfGi-4">
          <mxGeometry x="-0.4" y="1" relative="1" as="geometry">
            <mxPoint x="-30" as="offset" />
          </mxGeometry>
        </mxCell>
        <mxCell id="KZ02CfdKbFGSH-bDwfGi-6" value="" style="endArrow=none;dashed=1;html=1;" edge="1" parent="1">
          <mxGeometry width="50" height="50" relative="1" as="geometry">
            <mxPoint x="109" y="160" as="sourcePoint" />
            <mxPoint x="739" y="160" as="targetPoint" />
          </mxGeometry>
        </mxCell>
        <mxCell id="KZ02CfdKbFGSH-bDwfGi-7" value="&lt;font style=&quot;font-size: 16px&quot;&gt;HTML&lt;/font&gt;" style="rounded=0;whiteSpace=wrap;html=1;" vertex="1" parent="1">
          <mxGeometry x="200" y="100" width="100" height="40" as="geometry" />
        </mxCell>
        <mxCell id="KZ02CfdKbFGSH-bDwfGi-8" value="&lt;font style=&quot;font-size: 16px&quot;&gt;CSS&lt;/font&gt;" style="rounded=0;whiteSpace=wrap;html=1;" vertex="1" parent="1">
          <mxGeometry x="333.5" y="100" width="90" height="40" as="geometry" />
        </mxCell>
        <mxCell id="KZ02CfdKbFGSH-bDwfGi-9" value="&lt;font style=&quot;font-size: 16px&quot;&gt;JQuery&lt;/font&gt;" style="rounded=0;whiteSpace=wrap;html=1;" vertex="1" parent="1">
          <mxGeometry x="460" y="100" width="90" height="40" as="geometry" />
        </mxCell>
        <mxCell id="KZ02CfdKbFGSH-bDwfGi-10" value="&lt;font style=&quot;font-size: 16px&quot;&gt;RESTFUL接口&lt;/font&gt;" style="rounded=0;whiteSpace=wrap;html=1;fillColor=#d5e8d4;strokeColor=#82b366;" vertex="1" parent="1">
          <mxGeometry x="170" y="170" width="490" height="40" as="geometry" />
        </mxCell>
        <mxCell id="KZ02CfdKbFGSH-bDwfGi-11" value="&lt;font style=&quot;font-size: 16px&quot;&gt;模板引擎渲染&lt;/font&gt;&lt;span style=&quot;color: rgba(0 , 0 , 0 , 0) ; font-family: monospace ; font-size: 0px&quot;&gt;%3CmxGraphModel%3E%3Croot%3E%3CmxCell%20id%3D%220%22%2F%3E%3CmxCell%20id%3D%221%22%20parent%3D%220%22%2F%3E%3CmxCell%20id%3D%222%22%20value%3D%22%26lt%3Bfont%20style%3D%26quot%3Bfont-size%3A%2016px%26quot%3B%26gt%3BJQuery%26lt%3B%2Ffont%26gt%3B%22%20style%3D%22rounded%3D0%3BwhiteSpace%3Dwrap%3Bhtml%3D1%3B%22%20vertex%3D%221%22%20parent%3D%221%22%3E%3CmxGeometry%20x%3D%22380%22%20y%3D%22100%22%20width%3D%2280%22%20height%3D%2260%22%20as%3D%22geometry%22%2F%3E%3C%2FmxCell%3E%3C%2Froot%3E%3C%2FmxGraphModel%3E&lt;/span&gt;" style="rounded=0;whiteSpace=wrap;html=1;fillColor=#d5e8d4;strokeColor=#82b366;" vertex="1" parent="1">
          <mxGeometry x="170" y="220" width="190" height="60" as="geometry" />
        </mxCell>
        <mxCell id="KZ02CfdKbFGSH-bDwfGi-12" value="&lt;font style=&quot;font-size: 16px&quot;&gt;图片&lt;/font&gt;" style="rounded=0;whiteSpace=wrap;html=1;" vertex="1" parent="1">
          <mxGeometry x="590" y="100" width="90" height="40" as="geometry" />
        </mxCell>
        <mxCell id="KZ02CfdKbFGSH-bDwfGi-13" value="" style="rounded=0;whiteSpace=wrap;html=1;fillColor=#d5e8d4;strokeColor=#82b366;" vertex="1" parent="1">
          <mxGeometry x="370" y="220" width="290" height="60" as="geometry" />
        </mxCell>
        <mxCell id="KZ02CfdKbFGSH-bDwfGi-14" value="&lt;font style=&quot;font-size: 16px&quot;&gt;POST请求&lt;/font&gt;" style="rounded=0;whiteSpace=wrap;html=1;" vertex="1" parent="1">
          <mxGeometry x="463.5" y="230" width="90" height="40" as="geometry" />
        </mxCell>
        <mxCell id="KZ02CfdKbFGSH-bDwfGi-15" value="&lt;font style=&quot;font-size: 16px&quot;&gt;GET请求&lt;/font&gt;" style="rounded=0;whiteSpace=wrap;html=1;" vertex="1" parent="1">
          <mxGeometry x="560" y="230" width="90" height="40" as="geometry" />
        </mxCell>
        <mxCell id="KZ02CfdKbFGSH-bDwfGi-16" value="&lt;font style=&quot;font-size: 16px&quot;&gt;Ajax交互&lt;/font&gt;" style="text;html=1;align=center;verticalAlign=middle;resizable=0;points=[];autosize=1;strokeColor=none;" vertex="1" parent="1">
          <mxGeometry x="383.5" y="240" width="80" height="20" as="geometry" />
        </mxCell>
        <mxCell id="KZ02CfdKbFGSH-bDwfGi-17" value="" style="endArrow=none;dashed=1;html=1;" edge="1" parent="1">
          <mxGeometry width="50" height="50" relative="1" as="geometry">
            <mxPoint x="109" y="290" as="sourcePoint" />
            <mxPoint x="739" y="290" as="targetPoint" />
          </mxGeometry>
        </mxCell>
        <mxCell id="KZ02CfdKbFGSH-bDwfGi-18" value="" style="rounded=0;whiteSpace=wrap;html=1;fillColor=#fff2cc;strokeColor=#d6b656;" vertex="1" parent="1">
          <mxGeometry x="170" y="300" width="490" height="110" as="geometry" />
        </mxCell>
        <mxCell id="KZ02CfdKbFGSH-bDwfGi-19" value="&lt;span style=&quot;font-size: 16px&quot;&gt;预分析模块&lt;/span&gt;" style="rounded=0;whiteSpace=wrap;html=1;" vertex="1" parent="1">
          <mxGeometry x="190" y="310" width="150" height="40" as="geometry" />
        </mxCell>
        <mxCell id="KZ02CfdKbFGSH-bDwfGi-20" value="&lt;span style=&quot;font-size: 16px&quot;&gt;检测引擎模块&lt;/span&gt;" style="rounded=0;whiteSpace=wrap;html=1;" vertex="1" parent="1">
          <mxGeometry x="356.5" y="310" width="150" height="40" as="geometry" />
        </mxCell>
        <mxCell id="KZ02CfdKbFGSH-bDwfGi-21" value="&lt;span style=&quot;font-size: 15px&quot;&gt;APK上传模块&lt;/span&gt;" style="rounded=0;whiteSpace=wrap;html=1;" vertex="1" parent="1">
          <mxGeometry x="190" y="360" width="150" height="40" as="geometry" />
        </mxCell>
        <mxCell id="KZ02CfdKbFGSH-bDwfGi-22" value="&lt;span style=&quot;font-size: 16px;&quot;&gt;静态分析模块&lt;/span&gt;" style="rounded=0;whiteSpace=wrap;html=1;" vertex="1" parent="1">
          <mxGeometry x="356.5" y="360" width="150" height="40" as="geometry" />
        </mxCell>
        <mxCell id="KZ02CfdKbFGSH-bDwfGi-23" value="" style="endArrow=none;dashed=1;html=1;" edge="1" parent="1">
          <mxGeometry width="50" height="50" relative="1" as="geometry">
            <mxPoint x="109" y="420" as="sourcePoint" />
            <mxPoint x="739" y="420" as="targetPoint" />
          </mxGeometry>
        </mxCell>
        <mxCell id="KZ02CfdKbFGSH-bDwfGi-24" value="&lt;font style=&quot;font-size: 16px&quot;&gt;权&lt;br&gt;限&lt;br&gt;控&lt;br&gt;制&lt;/font&gt;" style="rounded=0;whiteSpace=wrap;html=1;fillColor=#d5e8d4;strokeColor=#82b366;" vertex="1" parent="1">
          <mxGeometry x="670" y="170" width="50" height="330" as="geometry" />
        </mxCell>
        <mxCell id="KZ02CfdKbFGSH-bDwfGi-25" value="" style="rounded=0;whiteSpace=wrap;html=1;fillColor=#ffe6cc;strokeColor=#d79b00;" vertex="1" parent="1">
          <mxGeometry x="170" y="430" width="490" height="70" as="geometry" />
        </mxCell>
        <mxCell id="KZ02CfdKbFGSH-bDwfGi-26" value="&lt;font style=&quot;font-size: 16px&quot;&gt;读写数据库&lt;/font&gt;" style="rounded=0;whiteSpace=wrap;html=1;" vertex="1" parent="1">
          <mxGeometry x="340" y="442.5" width="150" height="45" as="geometry" />
        </mxCell>
        <mxCell id="KZ02CfdKbFGSH-bDwfGi-27" value="&lt;font style=&quot;font-size: 16px&quot;&gt;数据库连接池&lt;/font&gt;" style="rounded=0;whiteSpace=wrap;html=1;" vertex="1" parent="1">
          <mxGeometry x="183.5" y="442.5" width="150" height="45" as="geometry" />
        </mxCell>
        <mxCell id="KZ02CfdKbFGSH-bDwfGi-28" value="" style="endArrow=none;dashed=1;html=1;" edge="1" parent="1">
          <mxGeometry width="50" height="50" relative="1" as="geometry">
            <mxPoint x="109" y="510" as="sourcePoint" />
            <mxPoint x="739" y="510" as="targetPoint" />
          </mxGeometry>
        </mxCell>
        <mxCell id="KZ02CfdKbFGSH-bDwfGi-29" value="&lt;font style=&quot;font-size: 16px&quot;&gt;APK表&lt;/font&gt;" style="shape=cylinder3;whiteSpace=wrap;html=1;boundedLbl=1;backgroundOutline=1;size=15;" vertex="1" parent="1">
          <mxGeometry x="216.5" y="560" width="60" height="80" as="geometry" />
        </mxCell>
        <mxCell id="KZ02CfdKbFGSH-bDwfGi-30" value="&lt;font style=&quot;font-size: 16px&quot;&gt;Mysql&lt;/font&gt;" style="text;html=1;align=center;verticalAlign=middle;resizable=0;points=[];autosize=1;strokeColor=none;" vertex="1" parent="1">
          <mxGeometry x="180" y="540" width="60" height="20" as="geometry" />
        </mxCell>
        <mxCell id="KZ02CfdKbFGSH-bDwfGi-31" value="&lt;font style=&quot;font-size: 16px&quot;&gt;用户表&lt;/font&gt;" style="shape=cylinder3;whiteSpace=wrap;html=1;boundedLbl=1;backgroundOutline=1;size=15;" vertex="1" parent="1">
          <mxGeometry x="296.5" y="560" width="60" height="80" as="geometry" />
        </mxCell>
        <mxCell id="KZ02CfdKbFGSH-bDwfGi-32" value="&lt;font style=&quot;font-size: 16px&quot;&gt;静态分析报告表&lt;/font&gt;" style="shape=cylinder3;whiteSpace=wrap;html=1;boundedLbl=1;backgroundOutline=1;size=15;" vertex="1" parent="1">
          <mxGeometry x="380" y="560" width="60" height="80" as="geometry" />
        </mxCell>
        <mxCell id="KZ02CfdKbFGSH-bDwfGi-33" value="&lt;font style=&quot;font-size: 16px&quot;&gt;&lt;b&gt;表示层&lt;/b&gt;&lt;/font&gt;" style="text;html=1;align=center;verticalAlign=middle;resizable=0;points=[];autosize=1;strokeColor=none;" vertex="1" parent="1">
          <mxGeometry x="80" y="210" width="60" height="20" as="geometry" />
        </mxCell>
        <mxCell id="KZ02CfdKbFGSH-bDwfGi-34" value="&lt;font style=&quot;font-size: 16px&quot;&gt;&lt;b&gt;前端UI界面&lt;/b&gt;&lt;/font&gt;" style="text;html=1;align=center;verticalAlign=middle;resizable=0;points=[];autosize=1;strokeColor=none;" vertex="1" parent="1">
          <mxGeometry x="60" y="110" width="100" height="20" as="geometry" />
        </mxCell>
        <mxCell id="KZ02CfdKbFGSH-bDwfGi-35" value="&lt;font style=&quot;font-size: 16px&quot;&gt;&lt;b&gt;业务逻辑层&lt;/b&gt;&lt;/font&gt;" style="text;html=1;align=center;verticalAlign=middle;resizable=0;points=[];autosize=1;strokeColor=none;" vertex="1" parent="1">
          <mxGeometry x="60" y="330" width="100" height="20" as="geometry" />
        </mxCell>
        <mxCell id="KZ02CfdKbFGSH-bDwfGi-36" value="&lt;font style=&quot;font-size: 16px&quot;&gt;&lt;b&gt;数据访问层&lt;/b&gt;&lt;/font&gt;" style="text;html=1;align=center;verticalAlign=middle;resizable=0;points=[];autosize=1;strokeColor=none;" vertex="1" parent="1">
          <mxGeometry x="60" y="455" width="100" height="20" as="geometry" />
        </mxCell>
        <mxCell id="KZ02CfdKbFGSH-bDwfGi-37" value="&lt;font style=&quot;font-size: 16px&quot;&gt;&lt;b&gt;持久层&lt;/b&gt;&lt;/font&gt;" style="text;html=1;align=center;verticalAlign=middle;resizable=0;points=[];autosize=1;strokeColor=none;" vertex="1" parent="1">
          <mxGeometry x="80" y="570" width="60" height="20" as="geometry" />
        </mxCell>
        <mxCell id="KZ02CfdKbFGSH-bDwfGi-38" value="" style="rounded=0;whiteSpace=wrap;html=1;fontSize=16;" vertex="1" parent="1">
          <mxGeometry x="515" y="537.5" width="190" height="115" as="geometry" />
        </mxCell>
        <mxCell id="KZ02CfdKbFGSH-bDwfGi-39" value="" style="group" vertex="1" connectable="0" parent="1">
          <mxGeometry x="570" y="556" width="120" height="85.11000000000001" as="geometry" />
        </mxCell>
        <mxCell id="KZ02CfdKbFGSH-bDwfGi-40" value="" style="ellipse;whiteSpace=wrap;html=1;fontSize=16;strokeColor=#000000;fillColor=none;" vertex="1" parent="KZ02CfdKbFGSH-bDwfGi-39">
          <mxGeometry width="120" height="85.11" as="geometry" />
        </mxCell>
        <mxCell id="KZ02CfdKbFGSH-bDwfGi-41" value="" style="ellipse;whiteSpace=wrap;html=1;aspect=fixed;fontSize=16;fillColor=none;" vertex="1" parent="KZ02CfdKbFGSH-bDwfGi-39">
          <mxGeometry x="28.42105263157896" y="13.65116279069764" width="12.31578947368421" height="12.31578947368421" as="geometry" />
        </mxCell>
        <mxCell id="KZ02CfdKbFGSH-bDwfGi-42" style="edgeStyle=orthogonalEdgeStyle;rounded=0;orthogonalLoop=1;jettySize=auto;html=1;exitX=0;exitY=0;exitDx=0;exitDy=0;entryX=1;entryY=1;entryDx=0;entryDy=0;fontSize=16;endArrow=blockThin;endFill=1;elbow=vertical;curved=1;" edge="1" parent="KZ02CfdKbFGSH-bDwfGi-39" source="KZ02CfdKbFGSH-bDwfGi-43" target="KZ02CfdKbFGSH-bDwfGi-41">
          <mxGeometry y="-1" as="geometry" />
        </mxCell>
        <mxCell id="KZ02CfdKbFGSH-bDwfGi-43" value="" style="ellipse;whiteSpace=wrap;html=1;aspect=fixed;fontSize=16;fillColor=none;" vertex="1" parent="KZ02CfdKbFGSH-bDwfGi-39">
          <mxGeometry x="53.68421052631584" y="34.58139534883719" width="12.31578947368421" height="12.31578947368421" as="geometry" />
        </mxCell>
        <mxCell id="KZ02CfdKbFGSH-bDwfGi-44" value="" style="ellipse;whiteSpace=wrap;html=1;aspect=fixed;fontSize=16;fillColor=none;" vertex="1" parent="KZ02CfdKbFGSH-bDwfGi-39">
          <mxGeometry x="20" y="51.32558139534888" width="12.31578947368421" height="12.31578947368421" as="geometry" />
        </mxCell>
        <mxCell id="KZ02CfdKbFGSH-bDwfGi-45" style="edgeStyle=orthogonalEdgeStyle;curved=1;rounded=0;orthogonalLoop=1;jettySize=auto;html=1;exitX=0.5;exitY=1;exitDx=0;exitDy=0;entryX=0.5;entryY=0;entryDx=0;entryDy=0;fontSize=16;endArrow=blockThin;endFill=1;" edge="1" parent="KZ02CfdKbFGSH-bDwfGi-39" source="KZ02CfdKbFGSH-bDwfGi-41" target="KZ02CfdKbFGSH-bDwfGi-44">
          <mxGeometry y="-1" as="geometry" />
        </mxCell>
        <mxCell id="KZ02CfdKbFGSH-bDwfGi-46" value="" style="ellipse;whiteSpace=wrap;html=1;aspect=fixed;fontSize=16;fillColor=none;" vertex="1" parent="KZ02CfdKbFGSH-bDwfGi-39">
          <mxGeometry x="87.36842105263156" y="42.953488372093034" width="12.31578947368421" height="12.31578947368421" as="geometry" />
        </mxCell>
        <mxCell id="KZ02CfdKbFGSH-bDwfGi-47" value="" style="ellipse;whiteSpace=wrap;html=1;aspect=fixed;fontSize=16;fillColor=none;" vertex="1" parent="KZ02CfdKbFGSH-bDwfGi-39">
          <mxGeometry x="78.9473684210526" y="13.65116279069764" width="12.31578947368421" height="12.31578947368421" as="geometry" />
        </mxCell>
        <mxCell id="KZ02CfdKbFGSH-bDwfGi-48" style="edgeStyle=orthogonalEdgeStyle;curved=1;rounded=0;orthogonalLoop=1;jettySize=auto;html=1;exitX=1;exitY=0.5;exitDx=0;exitDy=0;entryX=0;entryY=1;entryDx=0;entryDy=0;fontSize=16;endArrow=blockThin;endFill=1;" edge="1" parent="KZ02CfdKbFGSH-bDwfGi-39" source="KZ02CfdKbFGSH-bDwfGi-43" target="KZ02CfdKbFGSH-bDwfGi-47">
          <mxGeometry y="-1" as="geometry" />
        </mxCell>
        <mxCell id="KZ02CfdKbFGSH-bDwfGi-49" style="edgeStyle=orthogonalEdgeStyle;curved=1;rounded=0;orthogonalLoop=1;jettySize=auto;html=1;exitX=0.5;exitY=0;exitDx=0;exitDy=0;entryX=1;entryY=1;entryDx=0;entryDy=0;fontSize=16;endArrow=blockThin;endFill=1;" edge="1" parent="KZ02CfdKbFGSH-bDwfGi-39" source="KZ02CfdKbFGSH-bDwfGi-51" target="KZ02CfdKbFGSH-bDwfGi-43">
          <mxGeometry y="-1" as="geometry" />
        </mxCell>
        <mxCell id="KZ02CfdKbFGSH-bDwfGi-50" style="edgeStyle=orthogonalEdgeStyle;curved=1;rounded=0;orthogonalLoop=1;jettySize=auto;html=1;exitX=1;exitY=0.5;exitDx=0;exitDy=0;entryX=0.5;entryY=1;entryDx=0;entryDy=0;fontSize=16;endArrow=blockThin;endFill=1;" edge="1" parent="KZ02CfdKbFGSH-bDwfGi-39" source="KZ02CfdKbFGSH-bDwfGi-51" target="KZ02CfdKbFGSH-bDwfGi-46">
          <mxGeometry y="-1" as="geometry" />
        </mxCell>
        <mxCell id="KZ02CfdKbFGSH-bDwfGi-51" value="" style="ellipse;whiteSpace=wrap;html=1;aspect=fixed;fontSize=16;fillColor=none;" vertex="1" parent="KZ02CfdKbFGSH-bDwfGi-39">
          <mxGeometry x="62.10526315789468" y="63.883720930232585" width="12.31578947368421" height="12.31578947368421" as="geometry" />
        </mxCell>
        <mxCell id="KZ02CfdKbFGSH-bDwfGi-52" style="edgeStyle=orthogonalEdgeStyle;curved=1;rounded=0;orthogonalLoop=1;jettySize=auto;html=1;exitX=1;exitY=1;exitDx=0;exitDy=0;fontSize=16;endArrow=blockThin;endFill=1;entryX=0;entryY=1;entryDx=0;entryDy=0;" edge="1" parent="KZ02CfdKbFGSH-bDwfGi-39" source="KZ02CfdKbFGSH-bDwfGi-44" target="KZ02CfdKbFGSH-bDwfGi-51">
          <mxGeometry y="-1" as="geometry">
            <mxPoint x="62" y="70" as="targetPoint" />
            <Array as="points">
              <mxPoint x="31" y="74" />
            </Array>
          </mxGeometry>
        </mxCell>
        <mxCell id="KZ02CfdKbFGSH-bDwfGi-54" value="图数据库" style="text;html=1;align=center;verticalAlign=middle;resizable=0;points=[];autosize=1;strokeColor=none;fontSize=16;" vertex="1" parent="1">
          <mxGeometry x="504" y="537" width="90" height="30" as="geometry" />
        </mxCell>
        <mxCell id="KZ02CfdKbFGSH-bDwfGi-55" value="&lt;font style=&quot;font-size: 16px&quot;&gt;读写文件&lt;/font&gt;" style="rounded=0;whiteSpace=wrap;html=1;" vertex="1" parent="1">
          <mxGeometry x="500" y="442.5" width="150" height="45" as="geometry" />
        </mxCell>
        <mxCell id="KZ02CfdKbFGSH-bDwfGi-57" value="" style="shape=image;verticalLabelPosition=bottom;verticalAlign=top;aspect=fixed;image=data:image/png,iVBORw0KGgoAAAANSUhEUgAAAMgAAADICAYAAACtWK6eAAAJG0lEQVR4Xu2dS8g2YxjH/9+CotiwkUOhhFBCKTYWLBxTSAlFDikLFAsKxYJyWJAIhYUiynlhY+GUQwpRCgtiw0ZCbHTVvHnyffO811zPPTPP+/x/U2/f4r3uuef/u+b3zDwz8863SywQgEAvgV2wgQAE+gkgCHsHBJYQQBB2DwggCPsABGoEOILUuDHKhACCmDSamDUCCFLjxigTAghi0mhi1gggSI0bo0wIIIhJo4lZI4AgNW6MMiGAICaNJmaNAILUuDHKhACCmDSamDUCCFLjxigTAghi0mhi1gggSI0bo0wIIIhJo4lZI4AgNW6MMiGAICaNJmaNAILUuDHKhACCmDSamDUCCFLjxigTAghi0mhi1gggSI0bo0wIIIhJo4lZI4AgNW6MMiGAICaNJmaNAILUuDHKhACCmDSamDUCCFLjxigTAghi0mhi1gggSI0bo0wIIIhJo4lZI4AgNW6MMiGAICaNJmaNAILUuDHKhACCmDSamDUCCFLjxigTAghi0mhi1gggSI0bo0wIIIhJo4lZI4AgNW6MMiGAICaNJmaNAILUuDHKhACCmDSamDUCCFLjxigTAghi0mhi1gggSI0bo0wIIIhJo4lZI4AgNW6MMiGAICaNJmaNAILUuDHKhACCmDSamDUCCFLjxigTAghi0mhi1gggSI0bo0wIIIhJo4lZI4AgNW6MMiGAICaNJmaNAILUuDHKhACCmDSamDUCCFLjxigTAghi0mhi1gggSI0bo0wIIIhJo4lZI4AgNW6MMiGAICaNJmaNAILUuDHKhACCmDSamDUCCFLjxigTAghi0mhi1gggSI0bo0wIIIhJo4lZI4AgNW6MMiGAICaNJmaNAILUuDHKhACCmDSamDUCCFLjxigTAghi0mhi1gggSI0bo0wIIIhJo4lZI4AgNW6MMiEwhSAnSrpA0gGSDuz+/VPSL93Ph5LekvSXCfPFmId2bI5YYBO//7Vj842kVyT9bMhmX0nnS4r9J/ab+NlngU0wekHSV2OyGUuQwyVduRBwuwy/S3pZ0ouSXt+ueAN+f62kiySdmczyWsfliWT9Ti47V9Jl3b4Tkmy3vC/pbUnPSPp+u+Khv28tyLGSru/k2H/oxnT1sTPEjrCJooQY8XNSkc2nHZtNFCXECDbnFdn81knypKTPi+vYbVhLQUKOlyQd3Wjj7pd0W6N1rcNqHpB0c6MNiSPtJY3WtQ6ruaYTv8W2/NQdgd5psbJWgpwq6YMWG/S/dbwp6ZwR1jv1KuMT7fjGk/4oKb7D7PTlKUlXjRDiDEkrS9JCkDhifD1CwK1V3iTp4RHXP/aqf5B0yEiTfCHphJHWPcVq43To6hEnOlhSHFHKy6qC7CfpE0lHlbcgN7DJp0FuqqZVcZXl4qZr3H1lD0q6ZeQ5xlj9pZKeH2PFC+t8V9JZkuKqaWlZVZCxDo//D/OZpNMl/VFKOc+g+ML5+ERTX9fwHH6KTY6rU7HzxiXcsZenVzlKrSJIXKOOa/RTLXdLumuqyRrME0fW6tWqodPH1a2Thw6asT76eOeE88d9uFcr860iSHwCnFaZtDgmjh5xFImjybovUx49tljslKNIHDVi38nc42jV5/e6fWfw+qqCnCLpo8GzrT7gXkl3rL6a0dcQn1bV6/nVjYubZXG+ve7L7ZLumWEj48M1RBm0VAW5QdKjg2ZqU/zlCJdL22zZf2s5aNUrJyts0GGS4qrZOi8fz3Q6GPfU4t7aoKUqSDwWcuGgmdoVx/2EEGVdl3iS4LGZNu5GSY/MNHdm2mPGfnZqyUbEUT2+iwxaqoJ8KykesJtjKX/hmmhj47Jr3LuZY3mo4d36MbZ/6gs7ixm+k3Tk0FAVQfaS9PfQiRrWx42luHS3rsuzki6faeOek3TFTHNnpo075nFrYK5lb0n/DJm8IshxkuIO7lxL6Vxywo19Q9LZE863ONW6P5pzq6T7ZmIT0w4+PUeQ9t1CkH6mFoJwirVcKk6x+vlYnGJFfL6k9+8EfEnvZ2PxJT3ic5m3fyfgMm8/G5vLvNwo7N8JuFG4/BTU4kYhj5os3wl41KSfj8WjJhGfhxX7dwIeVuxnY/GwYsSf+gsXj7v373Q87r78iF5++qJyH2RxU/iDqfU4iuyUR923aFn8wVSE5U9ul39y8Se3/Xws/uQ24vPShuWS8NKGfj4b/9KGrei89me5JLz2p5/PWKfpTV70sep3kMXYvDhuuSS8OK6fz8a/OG4rOq8eXS4Jrx7t57Pxrx5djM7Lq7cXhZdX75nRRr+8ek+R+e8P+mXhvz/oZ7PR//3B8s9PfguBHUKg5Zf0HRKZzYRAngCC5FlRaUgAQQybTuQ8AQTJs6LSkACCGDadyHkCCJJnRaUhAQQxbDqR8wQQJM+KSkMCCGLYdCLnCSBInhWVhgQQxLDpRM4TQJA8KyoNCSCIYdOJnCeAIHlWVBoSQBDDphM5TwBB8qyoNCSAIIZNJ3KeAILkWVFpSABBDJtO5DwBBMmzotKQAIIYNp3IeQIIkmdFpSEBBDFsOpHzBBAkz4pKQwIIYth0IucJIEieFZWGBBDEsOlEzhNAkDwrKg0JIIhh04mcJ4AgeVZUGhJAEMOmEzlPAEHyrKg0JIAghk0ncp4AguRZUWlIAEEMm07kPAEEybOi0pAAghg2nch5AgiSZ0WlIQEEMWw6kfMEECTPikpDAghi2HQi5wkgSJ4VlYYEEMSw6UTOE0CQPCsqDQkgiGHTiZwngCB5VlQaEkAQw6YTOU8AQfKsqDQkgCCGTSdyngCC5FlRaUgAQQybTuQ8AQTJs6LSkACCGDadyHkCCJJnRaUhAQQxbDqR8wQQJM+KSkMCCGLYdCLnCSBInhWVhgQQxLDpRM4TQJA8KyoNCSCIYdOJnCeAIHlWVBoSQBDDphM5TwBB8qyoNCSAIIZNJ3KeAILkWVFpSABBDJtO5DwBBMmzotKQAIIYNp3IeQIIkmdFpSEBBDFsOpHzBBAkz4pKQwIIYth0IucJIEieFZWGBBDEsOlEzhNAkDwrKg0JIIhh04mcJ4AgeVZUGhJAEMOmEzlPAEHyrKg0JIAghk0ncp4AguRZUWlIAEEMm07kPIF/AVVn7snah7FKAAAAAElFTkSuQmCC" vertex="1" parent="1">
          <mxGeometry x="553" y="333" width="44" height="44" as="geometry" />
        </mxCell>
        <mxCell id="KZ02CfdKbFGSH-bDwfGi-58" value="" style="shape=image;verticalLabelPosition=bottom;verticalAlign=top;aspect=fixed;image=data:image/png,iVBORw0KGgoAAAANSUhEUgAAAMgAAADICAYAAACtWK6eAAAJG0lEQVR4Xu2dS8g2YxjH/9+CotiwkUOhhFBCKTYWLBxTSAlFDikLFAsKxYJyWJAIhYUiynlhY+GUQwpRCgtiw0ZCbHTVvHnyffO811zPPTPP+/x/U2/f4r3uuef/u+b3zDwz8863SywQgEAvgV2wgQAE+gkgCHsHBJYQQBB2DwggCPsABGoEOILUuDHKhACCmDSamDUCCFLjxigTAghi0mhi1gggSI0bo0wIIIhJo4lZI4AgNW6MMiGAICaNJmaNAILUuDHKhACCmDSamDUCCFLjxigTAghi0mhi1gggSI0bo0wIIIhJo4lZI4AgNW6MMiGAICaNJmaNAILUuDHKhACCmDSamDUCCFLjxigTAghi0mhi1gggSI0bo0wIIIhJo4lZI4AgNW6MMiGAICaNJmaNAILUuDHKhACCmDSamDUCCFLjxigTAghi0mhi1gggSI0bo0wIIIhJo4lZI4AgNW6MMiGAICaNJmaNAILUuDHKhACCmDSamDUCCFLjxigTAghi0mhi1gggSI0bo0wIIIhJo4lZI4AgNW6MMiGAICaNJmaNAILUuDHKhACCmDSamDUCCFLjxigTAghi0mhi1gggSI0bo0wIIIhJo4lZI4AgNW6MMiGAICaNJmaNAILUuDHKhACCmDSamDUCCFLjxigTAghi0mhi1gggSI0bo0wIIIhJo4lZI4AgNW6MMiGAICaNJmaNAILUuDHKhACCmDSamDUCCFLjxigTAghi0mhi1gggSI0bo0wIIIhJo4lZI4AgNW6MMiGAICaNJmaNAILUuDHKhACCmDSamDUCCFLjxigTAghi0mhi1gggSI0bo0wIIIhJo4lZI4AgNW6MMiGAICaNJmaNAILUuDHKhACCmDSamDUCCFLjxigTAghi0mhi1gggSI0bo0wIIIhJo4lZI4AgNW6MMiEwhSAnSrpA0gGSDuz+/VPSL93Ph5LekvSXCfPFmId2bI5YYBO//7Vj842kVyT9bMhmX0nnS4r9J/ab+NlngU0wekHSV2OyGUuQwyVduRBwuwy/S3pZ0ouSXt+ueAN+f62kiySdmczyWsfliWT9Ti47V9Jl3b4Tkmy3vC/pbUnPSPp+u+Khv28tyLGSru/k2H/oxnT1sTPEjrCJooQY8XNSkc2nHZtNFCXECDbnFdn81knypKTPi+vYbVhLQUKOlyQd3Wjj7pd0W6N1rcNqHpB0c6MNiSPtJY3WtQ6ruaYTv8W2/NQdgd5psbJWgpwq6YMWG/S/dbwp6ZwR1jv1KuMT7fjGk/4oKb7D7PTlKUlXjRDiDEkrS9JCkDhifD1CwK1V3iTp4RHXP/aqf5B0yEiTfCHphJHWPcVq43To6hEnOlhSHFHKy6qC7CfpE0lHlbcgN7DJp0FuqqZVcZXl4qZr3H1lD0q6ZeQ5xlj9pZKeH2PFC+t8V9JZkuKqaWlZVZCxDo//D/OZpNMl/VFKOc+g+ML5+ERTX9fwHH6KTY6rU7HzxiXcsZenVzlKrSJIXKOOa/RTLXdLumuqyRrME0fW6tWqodPH1a2Thw6asT76eOeE88d9uFcr860iSHwCnFaZtDgmjh5xFImjybovUx49tljslKNIHDVi38nc42jV5/e6fWfw+qqCnCLpo8GzrT7gXkl3rL6a0dcQn1bV6/nVjYubZXG+ve7L7ZLumWEj48M1RBm0VAW5QdKjg2ZqU/zlCJdL22zZf2s5aNUrJyts0GGS4qrZOi8fz3Q6GPfU4t7aoKUqSDwWcuGgmdoVx/2EEGVdl3iS4LGZNu5GSY/MNHdm2mPGfnZqyUbEUT2+iwxaqoJ8KykesJtjKX/hmmhj47Jr3LuZY3mo4d36MbZ/6gs7ixm+k3Tk0FAVQfaS9PfQiRrWx42luHS3rsuzki6faeOek3TFTHNnpo075nFrYK5lb0n/DJm8IshxkuIO7lxL6Vxywo19Q9LZE863ONW6P5pzq6T7ZmIT0w4+PUeQ9t1CkH6mFoJwirVcKk6x+vlYnGJFfL6k9+8EfEnvZ2PxJT3ic5m3fyfgMm8/G5vLvNwo7N8JuFG4/BTU4kYhj5os3wl41KSfj8WjJhGfhxX7dwIeVuxnY/GwYsSf+gsXj7v373Q87r78iF5++qJyH2RxU/iDqfU4iuyUR923aFn8wVSE5U9ul39y8Se3/Xws/uQ24vPShuWS8NKGfj4b/9KGrei89me5JLz2p5/PWKfpTV70sep3kMXYvDhuuSS8OK6fz8a/OG4rOq8eXS4Jrx7t57Pxrx5djM7Lq7cXhZdX75nRRr+8ek+R+e8P+mXhvz/oZ7PR//3B8s9PfguBHUKg5Zf0HRKZzYRAngCC5FlRaUgAQQybTuQ8AQTJs6LSkACCGDadyHkCCJJnRaUhAQQxbDqR8wQQJM+KSkMCCGLYdCLnCSBInhWVhgQQxLDpRM4TQJA8KyoNCSCIYdOJnCeAIHlWVBoSQBDDphM5TwBB8qyoNCSAIIZNJ3KeAILkWVFpSABBDJtO5DwBBMmzotKQAIIYNp3IeQIIkmdFpSEBBDFsOpHzBBAkz4pKQwIIYth0IucJIEieFZWGBBDEsOlEzhNAkDwrKg0JIIhh04mcJ4AgeVZUGhJAEMOmEzlPAEHyrKg0JIAghk0ncp4AguRZUWlIAEEMm07kPAEEybOi0pAAghg2nch5AgiSZ0WlIQEEMWw6kfMEECTPikpDAghi2HQi5wkgSJ4VlYYEEMSw6UTOE0CQPCsqDQkgiGHTiZwngCB5VlQaEkAQw6YTOU8AQfKsqDQkgCCGTSdyngCC5FlRaUgAQQybTuQ8AQTJs6LSkACCGDadyHkCCJJnRaUhAQQxbDqR8wQQJM+KSkMCCGLYdCLnCSBInhWVhgQQxLDpRM4TQJA8KyoNCSCIYdOJnCeAIHlWVBoSQBDDphM5TwBB8qyoNCSAIIZNJ3KeAILkWVFpSABBDJtO5DwBBMmzotKQAIIYNp3IeQIIkmdFpSEBBDFsOpHzBBAkz4pKQwIIYth0IucJIEieFZWGBBDEsOlEzhNAkDwrKg0JIIhh04mcJ4AgeVZUGhJAEMOmEzlPAEHyrKg0JIAghk0ncp4AguRZUWlIAEEMm07kPIF/AVVn7snah7FKAAAAAElFTkSuQmCC" vertex="1" parent="1">
          <mxGeometry x="446" y="578" width="44" height="44" as="geometry" />
        </mxCell>
      </root>
    </mxGraphModel>
  </diagram>
</mxfile>
